<svg width="175" height="177" viewBox="0 0 175 177" fill="none" xmlns="http://www.w3.org/2000/svg">
<path d="M81.6817 154.992C62.7809 167.564 26.2132 134.434 42.4752 105.673C47.5912 118.766 51.6095 123.674 63.227 123.027C69.7503 118.877 72.2704 116.084 71.969 109.124C71.6676 102.164 51.5993 85.4604 49.1053 74.1699C46.6113 62.8793 52.0548 44.8314 59.7576 28.7214C63.7397 45.9903 72.9656 62.0546 78.8364 66.4141C84.7072 70.7736 101.032 69.8832 109.192 64.3864C109.192 64.3864 103.931 51.3879 92.0089 42.7575C115.162 43.5587 126.243 46.2508 139.881 58.2912C143.183 58.2921 162.218 82.5454 155.128 100.964C145.366 125.116 121.308 149.272 119.462 142.589C117.616 135.906 118.24 115.876 113.489 107.846C106.064 96.7106 99.653 92.7005 82.0281 91.6928C102.327 118.718 100.582 142.419 81.6817 154.992Z" fill="#141414"/>
</svg>
