<svg width="32" height="32" viewBox="0 0 32 32" fill="none" xmlns="http://www.w3.org/2000/svg">
<path d="M16.0015 0C11.6561 0 11.1108 0.0190005 9.4041 0.096668C7.70075 0.174669 6.53807 0.444338 5.52072 0.840009C4.46838 1.24868 3.5757 1.79535 2.68636 2.68503C1.79635 3.57437 1.24968 4.46705 0.839675 5.51906C0.443004 6.53673 0.173002 7.69975 0.0963342 9.40243C0.0200001 11.1091 0 11.6548 0 16.0002C0 20.3455 0.0193338 20.8892 0.096668 22.5959C0.175002 24.2993 0.444671 25.4619 0.840009 26.4793C1.24901 27.5316 1.79569 28.4243 2.68536 29.3136C3.57437 30.2036 4.46705 30.7517 5.51872 31.1603C6.53673 31.556 7.69975 31.8257 9.40276 31.9037C11.1094 31.9813 11.6545 32.0003 15.9995 32.0003C20.3452 32.0003 20.8889 31.9813 22.5956 31.9037C24.2989 31.8257 25.4629 31.556 26.4809 31.1603C27.533 30.7517 28.4243 30.2036 29.3133 29.3136C30.2033 28.4243 30.75 27.5316 31.16 26.4796C31.5533 25.4619 31.8233 24.2989 31.9033 22.5962C31.98 20.8896 32 20.3455 32 16.0002C32 11.6548 31.98 11.1094 31.9033 9.40276C31.8233 7.69941 31.5533 6.53673 31.16 5.51939C30.75 4.46705 30.2033 3.57437 29.3133 2.68503C28.4233 1.79502 27.5333 1.24835 26.4799 0.840009C25.4599 0.444338 24.2966 0.174669 22.5932 0.096668C20.8866 0.0190005 20.3432 0 15.9965 0H16.0015ZM14.5662 2.88336C14.9922 2.8827 15.4675 2.88336 16.0015 2.88336C20.2735 2.88336 20.7799 2.8987 22.4669 2.97536C24.0269 3.0467 24.8736 3.30737 25.4376 3.52637C26.1843 3.81637 26.7166 4.16304 27.2763 4.72305C27.8363 5.28305 28.183 5.81639 28.4736 6.56307C28.6926 7.12641 28.9536 7.97308 29.0246 9.5331C29.1013 11.2198 29.118 11.7265 29.118 15.9965C29.118 20.2665 29.1013 20.7732 29.0246 22.4599C28.9533 24.0199 28.6926 24.8666 28.4736 25.4299C28.1836 26.1766 27.8363 26.7083 27.2763 27.268C26.7163 27.828 26.1846 28.1746 25.4376 28.4646C24.8743 28.6846 24.0269 28.9446 22.4669 29.016C20.7802 29.0926 20.2735 29.1093 16.0015 29.1093C11.7291 29.1093 11.2228 29.0926 9.5361 29.016C7.97608 28.944 7.12941 28.6833 6.56507 28.4643C5.81839 28.1743 5.28505 27.8276 4.72505 27.2676C4.16504 26.7076 3.81837 26.1756 3.5277 25.4286C3.3087 24.8653 3.0477 24.0186 2.9767 22.4586C2.90003 20.7719 2.8847 20.2652 2.8847 15.9925C2.8847 11.7198 2.90003 11.2158 2.9767 9.5291C3.04803 7.96908 3.3087 7.12241 3.5277 6.5584C3.81771 5.81173 4.16504 5.27839 4.72505 4.71838C5.28505 4.15838 5.81839 3.81171 6.56507 3.52104C7.12907 3.30103 7.97608 3.04103 9.5361 2.96936C11.0121 2.9027 11.5841 2.8827 14.5662 2.87936V2.88336ZM24.5423 5.54006C23.4822 5.54006 22.6222 6.39907 22.6222 7.45941C22.6222 8.51942 23.4822 9.37943 24.5423 9.37943C25.6023 9.37943 26.4623 8.51942 26.4623 7.45941C26.4623 6.3994 25.6023 5.53939 24.5423 5.53939V5.54006ZM16.0015 7.78341C11.4638 7.78341 7.78475 11.4625 7.78475 16.0002C7.78475 20.5379 11.4638 24.2153 16.0015 24.2153C20.5392 24.2153 24.2169 20.5379 24.2169 16.0002C24.2169 11.4625 20.5389 7.78341 16.0012 7.78341H16.0015ZM16.0015 10.6668C18.9469 10.6668 21.3349 13.0545 21.3349 16.0002C21.3349 18.9455 18.9469 21.3336 16.0015 21.3336C13.0558 21.3336 10.6681 18.9455 10.6681 16.0002C10.6681 13.0545 13.0558 10.6668 16.0015 10.6668V10.6668Z" fill="#212121"/>
</svg>
