<svg width="140" height="140" viewBox="0 0 140 140" fill="none" xmlns="http://www.w3.org/2000/svg">
<path d="M0 52.5C0 42.835 7.83502 35 17.5 35H122.5C132.165 35 140 42.835 140 52.5V96.25C140 105.915 132.165 113.75 122.5 113.75H17.5C7.83502 113.75 0 105.915 0 96.25V52.5ZM113.75 54.6875V59.0625C113.75 60.2706 114.729 61.25 115.938 61.25H120.312C121.521 61.25 122.5 60.2706 122.5 59.0625V54.6875C122.5 53.4794 121.521 52.5 120.312 52.5H115.938C114.729 52.5 113.75 53.4794 113.75 54.6875ZM19.6875 70C18.4794 70 17.5 70.9794 17.5 72.1875V76.5625C17.5 77.7706 18.4794 78.75 19.6875 78.75H24.0625C25.2706 78.75 26.25 77.7706 26.25 76.5625V72.1875C26.25 70.9794 25.2706 70 24.0625 70H19.6875ZM35 72.1875V76.5625C35 77.7706 35.9794 78.75 37.1875 78.75H41.5625C42.7706 78.75 43.75 77.7706 43.75 76.5625V72.1875C43.75 70.9794 42.7706 70 41.5625 70H37.1875C35.9794 70 35 70.9794 35 72.1875ZM54.6875 70C53.4794 70 52.5 70.9794 52.5 72.1875V76.5625C52.5 77.7706 53.4794 78.75 54.6875 78.75H59.0625C60.2706 78.75 61.25 77.7706 61.25 76.5625V72.1875C61.25 70.9794 60.2706 70 59.0625 70H54.6875ZM70 72.1875V76.5625C70 77.7706 70.9794 78.75 72.1875 78.75H76.5625C77.7706 78.75 78.75 77.7706 78.75 76.5625V72.1875C78.75 70.9794 77.7706 70 76.5625 70H72.1875C70.9794 70 70 70.9794 70 72.1875ZM115.938 70C114.729 70 113.75 70.9794 113.75 72.1875V76.5625C113.75 77.7706 114.729 78.75 115.938 78.75H120.312C121.521 78.75 122.5 77.7706 122.5 76.5625V72.1875C122.5 70.9794 121.521 70 120.312 70H115.938ZM115.938 87.5C114.729 87.5 113.75 88.4794 113.75 89.6875V94.0625C113.75 95.2706 114.729 96.25 115.938 96.25H120.312C121.521 96.25 122.5 95.2706 122.5 94.0625V89.6875C122.5 88.4794 121.521 87.5 120.312 87.5H115.938ZM89.6875 70C88.4794 70 87.5 70.9794 87.5 72.1875V76.5625C87.5 77.7706 88.4794 78.75 89.6875 78.75H102.812C104.021 78.75 105 77.7706 105 76.5625V72.1875C105 70.9794 104.021 70 102.812 70H89.6875ZM96.25 89.6875V94.0625C96.25 95.2706 97.2294 96.25 98.4375 96.25H102.812C104.021 96.25 105 95.2706 105 94.0625V89.6875C105 88.4794 104.021 87.5 102.812 87.5H98.4375C97.2294 87.5 96.25 88.4794 96.25 89.6875ZM98.4375 52.5C97.2294 52.5 96.25 53.4794 96.25 54.6875V59.0625C96.25 60.2706 97.2294 61.25 98.4375 61.25H102.812C104.021 61.25 105 60.2706 105 59.0625V54.6875C105 53.4794 104.021 52.5 102.812 52.5H98.4375ZM78.75 54.6875V59.0625C78.75 60.2706 79.7294 61.25 80.9375 61.25H85.3125C86.5206 61.25 87.5 60.2706 87.5 59.0625V54.6875C87.5 53.4794 86.5206 52.5 85.3125 52.5H80.9375C79.7294 52.5 78.75 53.4794 78.75 54.6875ZM63.4375 52.5C62.2294 52.5 61.25 53.4794 61.25 54.6875V59.0625C61.25 60.2706 62.2294 61.25 63.4375 61.25H67.8125C69.0206 61.25 70 60.2706 70 59.0625V54.6875C70 53.4794 69.0206 52.5 67.8125 52.5H63.4375ZM43.75 54.6875V59.0625C43.75 60.2706 44.7294 61.25 45.9375 61.25H50.3125C51.5206 61.25 52.5 60.2706 52.5 59.0625V54.6875C52.5 53.4794 51.5206 52.5 50.3125 52.5H45.9375C44.7294 52.5 43.75 53.4794 43.75 54.6875ZM19.6875 52.5C18.4794 52.5 17.5 53.4794 17.5 54.6875V59.0625C17.5 60.2706 18.4794 61.25 19.6875 61.25H32.8125C34.0206 61.25 35 60.2706 35 59.0625V54.6875C35 53.4794 34.0206 52.5 32.8125 52.5H19.6875ZM17.5 89.6875V94.0625C17.5 95.2706 18.4794 96.25 19.6875 96.25H24.0625C25.2706 96.25 26.25 95.2706 26.25 94.0625V89.6875C26.25 88.4794 25.2706 87.5 24.0625 87.5H19.6875C18.4794 87.5 17.5 88.4794 17.5 89.6875ZM37.1875 87.5C35.9794 87.5 35 88.4794 35 89.6875V94.0625C35 95.2706 35.9794 96.25 37.1875 96.25H85.3125C86.5206 96.25 87.5 95.2706 87.5 94.0625V89.6875C87.5 88.4794 86.5206 87.5 85.3125 87.5H37.1875Z" fill="black"/>
</svg>
