<svg width="140" height="140" viewBox="0 0 140 140" fill="none" xmlns="http://www.w3.org/2000/svg">
<path d="M43.75 8.75C34.085 8.75 26.25 16.585 26.25 26.25V35H113.75V26.25C113.75 16.585 105.915 8.75 96.25 8.75H43.75Z" fill="black"/>
<path d="M96.25 78.75H43.75C38.9175 78.75 35 82.6675 35 87.5V113.75C35 118.582 38.9175 122.5 43.75 122.5H96.25C101.082 122.5 105 118.582 105 113.75V87.5C105 82.6675 101.082 78.75 96.25 78.75Z" fill="black"/>
<path d="M0 61.25C0 51.585 7.83502 43.75 17.5 43.75H122.5C132.165 43.75 140 51.585 140 61.25V87.5C140 97.165 132.165 105 122.5 105H113.75V87.5C113.75 77.835 105.915 70 96.25 70H43.75C34.085 70 26.25 77.835 26.25 87.5V105H17.5C7.83502 105 0 97.165 0 87.5V61.25ZM21.875 70C24.2912 70 26.25 68.0412 26.25 65.625C26.25 63.2088 24.2912 61.25 21.875 61.25C19.4588 61.25 17.5 63.2088 17.5 65.625C17.5 68.0412 19.4588 70 21.875 70Z" fill="black"/>
</svg>
