<svg width="160" height="128" viewBox="0 0 160 128" fill="none" xmlns="http://www.w3.org/2000/svg">
<path d="M53.0709 0L0 25.0802L26.9291 37.9452L1.10236 50.4203L54.4882 75.6305L79.8425 63.4152L106.299 75.6305L159.213 50.4203L133.228 38.2051L160 25.2101L106.929 0.129949L79.685 12.6051L53.0709 0Z" fill="#262626"/>
<path d="M107.402 87.9756L81.7323 65.7543V128L137.008 101.49V62.7655L107.402 87.9756Z" fill="#262626"/>
<path d="M78.5827 127.87V65.7018L52.7559 87.7157L22.9921 62.3756V101.49L78.5827 127.87Z" fill="#262626"/>
<path d="M26.9291 37.9452L79.685 12.6051L133.228 38.2051L79.8425 63.4152L26.9291 37.9452Z" fill="#F98000"/>
<path d="M69.1973 52.2396C63.0555 52.6294 58.961 39.8944 66.6776 35.3462C66.1039 39.1136 66.382 40.8107 69.1973 42.2335C71.2914 42.1433 72.2616 41.8292 73.1343 40.1543C74.0069 38.4794 71.5595 31.8376 72.5043 28.8487C73.4492 25.8599 77.1736 22.3605 81.1658 19.6223C79.7599 24.2165 79.7484 29.2386 80.5358 31.0579C81.3232 32.8772 85.2766 34.8809 87.9374 34.6964C87.9374 34.6964 88.4642 30.9315 86.8351 27.2893C92.1623 30.6158 94.399 32.7499 95.9689 37.4254C96.744 37.8732 97.9254 46.1474 93.7642 49.5107C88.1986 53.8579 79.276 56.268 79.7484 54.4487C80.2209 52.6294 83.0826 48.0115 83.0555 45.4822C82.8217 41.8615 81.86 40.051 77.8587 37.4254C78.961 46.5218 75.339 51.8497 69.1973 52.2396Z" fill="url(#paint0_linear_29_16)"/>
<defs>
<linearGradient id="paint0_linear_29_16" x1="79.5991" y1="19.6224" x2="79.5991" y2="55.0608" gradientUnits="userSpaceOnUse">
<stop stop-color="#262626"/>
<stop offset="1" stop-color="#262626"/>
</linearGradient>
</defs>
</svg>
