<svg width="64" height="64" viewBox="0 0 64 64" fill="none" xmlns="http://www.w3.org/2000/svg">
<g opacity="0.25">
<path fill-rule="evenodd" clip-rule="evenodd" d="M26 48C38.1503 48 48 38.1503 48 26C48 13.8497 38.1503 4 26 4C13.8497 4 4 13.8497 4 26C4 38.1503 13.8497 48 26 48ZM52 26C52 40.3594 40.3594 52 26 52C11.6406 52 0 40.3594 0 26C0 11.6406 11.6406 0 26 0C40.3594 0 52 11.6406 52 26Z" fill="black"/>
<path d="M41.3756 46.9687C41.4935 47.1286 41.6249 47.2818 41.7697 47.4266L57.1716 62.8284C58.7337 64.3905 61.2663 64.3905 62.8284 62.8284C64.3905 61.2663 64.3905 58.7337 62.8284 57.1716L47.4266 41.7697C47.2818 41.6249 47.1286 41.4935 46.9687 41.3756C45.3996 43.5118 43.5118 45.3996 41.3756 46.9687Z" fill="black"/>
</g>
</svg>
